<?xml version="1.0" encoding="utf-8"?>
<!-- Generator: Adobe Illustrator 20.1.0, SVG Export Plug-In . SVG Version: 6.00 Build 0)  -->
<svg version="1.1" id="圖層_1" xmlns="http://www.w3.org/2000/svg" xmlns:xlink="http://www.w3.org/1999/xlink" x="0px" y="0px"
	 viewBox="0 0 120 120" style="enable-background:new 0 0 120 120;" xml:space="preserve">
<style type="text/css">
	.st0{fill:#FFFFFF;}
	.st1{fill:#00CC00;}
</style>
<path class="st0" d="M60,29.4c-20.7,0-37.5,13.4-37.5,30.1s16.3,28.6,33.7,30c5.6,0.5-2.3,10.7,1,11.2c2.9,0.4,40.3-19.5,40.3-41.2
	C97.5,42.8,80.7,29.4,60,29.4z"/>
<path class="st1" d="M46.6,68.1c-0.3,0.3-0.8,0.5-1.4,0.5H38c-0.8,0-1.4-0.2-1.8-0.6c-0.4-0.5-0.6-1.2-0.6-2.2V52.4
	c0-0.9,0.2-1.6,0.5-2c0.3-0.5,0.8-0.6,1.4-0.6s1.1,0.2,1.4,0.6c0.3,0.4,0.6,1,0.6,2v12.4h5.7c0.6,0,1.1,0.2,1.4,0.6
	c0.3,0.3,0.5,0.8,0.5,1.4S46.9,67.8,46.6,68.1z"/>
<path class="st1" d="M52.5,66.7c0,0.7-0.2,1.3-0.5,1.7c-0.3,0.4-0.8,0.6-1.4,0.6c-0.6,0-1-0.2-1.3-0.6c-0.4-0.5-0.6-1-0.6-1.8V52.3
	c0-0.7,0.2-1.3,0.5-1.7S50,50,50.6,50s1.1,0.2,1.4,0.6c0.3,0.4,0.5,0.9,0.5,1.7V66.7z"/>
<path class="st1" d="M70.6,66.6c0,1.6-0.6,2.4-1.8,2.4c-0.3,0-0.6-0.1-0.8-0.2s-0.5-0.2-0.6-0.5c-0.2-0.2-0.4-0.5-0.6-0.7
	s-0.3-0.6-0.6-0.8l-6.9-9.3v9.3c0,0.7-0.2,1.2-0.6,1.5c-0.3,0.3-0.8,0.6-1.4,0.6c-0.6,0-1.1-0.2-1.4-0.6c-0.3-0.3-0.5-0.9-0.5-1.5
	v-14c0-0.6,0.1-1.1,0.2-1.4c0.2-0.4,0.4-0.6,0.8-0.9c0.3-0.2,0.7-0.3,1.1-0.3c0.3,0,0.6,0.1,0.8,0.2c0.2,0.1,0.4,0.2,0.6,0.4
	c0.2,0.2,0.3,0.4,0.6,0.7c0.3,0.1,0.4,0.4,0.7,0.8l6.7,9.2v-9.3c0-0.7,0.2-1.2,0.5-1.6c0.3-0.3,0.8-0.6,1.3-0.6
	c0.6,0,1.1,0.2,1.4,0.6c0.3,0.3,0.5,0.9,0.5,1.6C70.6,52.2,70.6,66.6,70.6,66.6z"/>
<path class="st1" d="M84.1,68c-0.3,0.3-0.7,0.5-1.3,0.5h-7.5c-0.8,0-1.4-0.2-1.8-0.6c-0.3-0.4-0.6-1.1-0.6-2.1v-13
	c0-0.6,0.1-1.2,0.2-1.6c0.1-0.4,0.4-0.7,0.7-0.9s0.8-0.2,1.3-0.2h7.5c0.6,0,1.1,0.2,1.3,0.5c0.3,0.3,0.4,0.7,0.4,1.3s-0.2,1-0.4,1.3
	c-0.1,0.2-0.6,0.4-1.2,0.4h-5.9v4.1h5.8c0.6,0,1,0.2,1.3,0.5c0.2,0.3,0.4,0.7,0.4,1.2s-0.2,0.9-0.4,1.2s-0.7,0.5-1.3,0.5h-5.8v3.8h6
	c0.6,0,1.1,0.2,1.3,0.5c0.3,0.3,0.5,0.8,0.5,1.3C84.6,67.3,84.4,67.7,84.1,68z"/>
</svg>
