<?xml version="1.0" encoding="utf-8"?>
<!-- Generator: Adobe Illustrator 21.1.0, SVG Export Plug-In . SVG Version: 6.00 Build 0)  -->
<svg version="1.1" id="圖層_1" xmlns="http://www.w3.org/2000/svg" xmlns:xlink="http://www.w3.org/1999/xlink" x="0px" y="0px"
	 viewBox="0 0 134.6 425.3" style="enable-background:new 0 0 134.6 425.3;" xml:space="preserve">
<style type="text/css">
	.st0{fill:#FFFFFF;}
</style>
<g>
	<path class="st0" d="M97.1,206.4c-0.3-0.1-0.5-0.8-0.6-1.3c-1.4-3.5-3.9-5.1-7.4-4.5c-3,0.5-5,3.1-5,6.8c-0.1,5-0.1,9.9,0,14.9
		c0.1,1.6,0.9,3.1,1.3,4.6c0.1,0.9,0.3,1.9-0.1,2.5c-2,3.5-5.4,5.5-9.5,7.1c-0.3-0.3-0.4-0.6-0.5-1c-3.4-3-8-2.8-10.6,0.6
		c-2.4,3.1-1.6,7.9,1.8,10.1c3.6,2.3,8,1,10.3-2.9c0.4-0.8,1.3-1.5,2.1-1.9c3.9-1.5,7.4-3.8,9.9-7c1.4-1.8,2.4-3.8,3.9-5.5
		c2.3-2.6,4.8-5,7.1-7.6c0.5-0.5,0.5-1.4,0.5-2.1c0-2.1-0.1-4.4,0-6.6C100.2,210,100.3,207.4,97.1,206.4z"/>
	<path class="st0" d="M80.7,188.2c2.9,2.6,4.9,6.3,7.5,9.8c1.3,0,3.1,0,5.1,0c-1-9.4-11.5-21.7-27.3-20.9
		c-13.3,0.6-23.5,12-24.3,20.9c1,0,2.1-0.3,3,0c2.4,0.6,3.3-0.4,4.1-2.5C54.4,182.8,70.3,179.1,80.7,188.2z"/>
	<path class="st0" d="M37.1,223.4c0.4,0.1,0.9,0.6,1,1.1c1.3,3.5,3.9,5.3,6.9,4.9c3.4-0.5,5.4-2.9,5.5-6.6c0.1-2.5,0-5.1,0-7.6
		c-0.1,0-0.3,0-0.5,0.1c0-3.3,0.3-6.4,0-9.5c-0.1-2.6-1.9-4.3-4.3-4.9c-2.4-0.6-4.8-0.3-6.4,2c-1.4,1.8-2,4.1-4.3,5.3
		c-0.5,0.3-0.6,1.6-0.6,2.4c0,2.9,0.1,5.6,0,8.5C34.5,221,35,222.6,37.1,223.4z"/>
</g>
<path class="st0" d="M103.1,348.6c-0.9-5.3-2.9-10.1-6-14.5c-5.6-7.9-13.1-12.9-22.7-14.8c-1.1-0.3-2.4-0.4-3.5-0.5
	c-0.1,0-0.1-0.1-0.3-0.1c-2.3,0-4.6,0-6.9,0c-1,0.1-1.9,0.4-2.9,0.5c-5.3,0.9-10.1,2.9-14.5,6c-7.9,5.6-12.9,13.1-14.8,22.7
	c-0.3,1.1-0.4,2.4-0.5,3.5c0,0.1-0.1,0.1-0.1,0.3c0,2.3,0,4.6,0,6.9c0.1,1,0.4,1.9,0.5,2.8c0.9,5.3,2.9,10.1,6,14.5
	c5.5,7.8,12.9,12.6,22.2,14.8c1.3,0.4,2.5,0.4,3.9,0.6c0.1,0,0.3,0.1,0.4,0.1c2.3,0,4.6,0,6.9,0c1-0.1,1.9-0.4,2.9-0.5
	c5.3-0.9,10.1-2.9,14.5-6c7.9-5.6,12.9-13.1,14.8-22.7c0.3-1.1,0.4-2.4,0.5-3.5c0-0.1,0.1-0.1,0.1-0.3c0-2.3,0-4.6,0-6.9
	C103.5,350.5,103.2,349.6,103.1,348.6z M50.8,366.3c0,0.6-0.1,1.4-0.1,2.1c-3.4,0-6.9,0-10.4,0.1c0.1-1.1,0.1-2.3,0.4-3.3
	c0.3-1.3,1.4-1.6,2.4-1.9c1.1-0.4,2.3-0.6,3.4-1c1.8-0.6,2.1-1.6,1.3-3.3c-1.1-2.1-1.9-4.3-1.9-6.6c0.1-2.9,1.6-4.6,4.4-5.1
	c3.1-0.6,5.6,1.4,6,3.8c0.4,3.3,0.3,6.5-2.6,8.9C51.5,361.6,50.9,363.9,50.8,366.3z M53.5,368.4c0.1-1.3,0.1-2.6,0.4-3.9
	c0.3-1.4,1.4-2,2.6-2.4c1.4-0.4,2.8-0.8,4.1-1.1c0.4-0.1,0.8-0.4,1.1-0.5c1.8-0.9,2.1-1.9,1.3-3.6c-1-2.1-1.9-4.3-2.4-6.5
	c-0.6-3.1,0.4-6.4,2.8-7.8c3.6-2.1,9-1,10.3,3.5c0.8,2.5,0.3,4.9-0.6,7.3c-0.4,1.1-1,2.3-1.5,3.4c-0.9,1.8-0.6,2.9,1.3,3.6
	c1.4,0.6,3,1,4.5,1.4c1.5,0.5,2.9,1,3.3,2.8c0.1,1.3,0.1,2.5,0.3,3.9C71.7,368.4,62.8,368.4,53.5,368.4z M94.2,368.4
	c-3.5,0-6.9,0-10.3-0.3c-0.1-1.1-0.3-2.4-0.4-3.5c-0.3-1.6-0.8-3.4-2.1-4.4c-2.9-2.1-3.5-5.1-3.3-8.5c0.1-2.3,1.5-4.1,3.6-4.6
	c3.6-0.9,7,1.3,6.9,5.3c0,2.4-0.8,4.4-1.8,6.4c-1.1,2-0.3,3,1.4,3.5c1,0.4,2,0.6,3,0.9c1.8,0.4,2.9,1.3,2.9,3.1
	C94.2,367,94.2,367.6,94.2,368.4z"/>
<g>
	<path class="st0" d="M70.6,36.4C70.4,34,68.4,32,65.9,32h-5.3c-2.5,0-4.5,1.9-4.6,4.4h-2.8v8.3h20v-8.3H70.6z M63.3,40.6
		c-1.3,0-2.3-1-2.3-2.3c0-1.3,1-2.3,2.3-2.3c1.3,0,2.3,1,2.3,2.3C65.5,39.6,64.5,40.6,63.3,40.6z"/>
	<path class="st0" d="M44.9,40.1c-4.4,0-7.9,3.5-7.9,7.9v40.7c0,4.4,3.5,7.9,7.9,7.9h26.2c-2.9-3-4.6-7.1-4.6-11.6
		c0-0.1,0-0.1,0-0.1H49.3c-2.3,0-4.1-1.9-4.1-4.1c0-2.3,1.9-4.1,4.1-4.1h19.3c2-3.6,5.3-6.4,9.1-7.8c-0.1,0-0.3,0-0.5,0H49.3
		c-2.3,0-4.1-1.9-4.1-4.1c0-2.3,1.9-4.1,4.1-4.1h27.9c2.3,0,4.1,1.9,4.1,4.1c0,1.5-0.9,2.9-2.1,3.5c1.4-0.4,2.9-0.6,4.4-0.6
		c2.1,0,4.1,0.4,6,1.1V47.9c0-4.3-3.5-7.8-7.8-7.8h-4.6v8.3H49.5v-8.3H44.9z"/>
	<path class="st0" d="M83.6,70.9c-7.7,0-14,6.3-14,14s6.3,14,14,14c7.7,0,14-6.3,14-14S91.3,70.9,83.6,70.9z M92.6,82.3L83,91.2
		c0,0-0.1,0.1-0.3,0.1c-0.8,0.8-1.9,0.8-2.5,0.1l-6-5.9c-0.6-0.6-0.6-1.8,0.1-2.5c0.8-0.8,1.9-0.8,2.5-0.1l5,4.9l8.6-8
		c0.8-0.6,1.8-0.5,2.4,0.1C93.5,80.6,93.5,81.7,92.6,82.3z"/>
</g>
</svg>
