<?xml version="1.0" encoding="utf-8"?>
<!-- Generator: Adobe Illustrator 21.0.2, SVG Export Plug-In . SVG Version: 6.00 Build 0)  -->
<svg version="1.1" id="圖層_1" xmlns="http://www.w3.org/2000/svg" xmlns:xlink="http://www.w3.org/1999/xlink" x="0px" y="0px"
	 viewBox="0 0 290 80" style="enable-background:new 0 0 290 80;" xml:space="preserve">
<style type="text/css">
	.st0{display:none;}
	.st1{display:inline;}
	.st2{fill:#FFFFFF;}
	.st3{fill:#1E94BB;}
	.st4{display:inline;fill:none;stroke:#1E94BB;stroke-miterlimit:10;}
	.st5{fill:#221714;}
	.st6{fill:#FCAE12;}
</style>
<g id="圖層_2" class="st0">
	<g class="st1">
		<g>
			<rect x="-33.1" y="-32.9" class="st2" width="356.2" height="112.4"/>
			<path class="st3" d="M322.6-32.4V79H-32.6V-32.4H322.6 M323.6-33.4H-33.6V80h357.2V-33.4L323.6-33.4z"/>
		</g>
	</g>
	<line class="st4" x1="-33.6" y1="-17.7" x2="323.6" y2="-17.7"/>
	<line class="st4" x1="323.6" y1="64.5" x2="-33.6" y2="64.5"/>
</g>
<rect x="168.5" y="17.4" class="st2" width="111.4" height="49.5"/>
<path class="st5" d="M63.2,37.1l-3.1,5.5c0,0-2-3.8-6.6-3.9c-2.6,0-7,4.1-6.6,10.7v17.5H40V33.6h6.3v5.8h0.1c4.3-5.1,6.4-6,10.1-5.7
	C60.3,34.1,63.2,37.1,63.2,37.1z"/>
<path class="st5" d="M154.8,52.4h-24.1c0.1,2.8,0.9,5,2.4,6.7c1.5,1.7,3.8,2.5,6.4,2.5c3.7,0,6.5-0.3,13.7-4.6l0.3,5.4
	c0,0-4.8,4.6-14.1,4.5c-5.9,0-10.3-1.9-13.1-5.7c-2.1-2.8-3.2-6.4-3.2-10.6c0-4.5,1.3-8.3,3.6-11.4c2.8-3.5,6.8-5.3,12-5.3
	c5.5,0,9.5,1.7,12.3,5.2C153.7,42.6,154.9,47,154.8,52.4z M147.3,47.6c-0.4-5.5-3.2-8.3-8.2-8.3c-3.1,0-5.4,1.2-6.8,3.6
	c-0.9,1.4-1.3,3-1.5,4.7C130.7,47.6,147.3,47.6,147.3,47.6z"/>
<rect x="11.4" y="56" class="st6" width="10.9" height="10.9"/>
<polygon class="st5" points="54.8,17.4 11.4,17.4 11.4,24.1 29.2,24.1 29.2,66.9 36.3,66.9 36.3,24.1 54.8,24.1 "/>
<rect x="157.9" y="17.4" class="st5" width="6.7" height="49.5"/>
<polygon class="st5" points="109.6,67 125.3,33.8 118,33.8 108.3,54.7 98.6,33.8 91,33.8 107.3,67 "/>
<path class="st6" d="M264.7,66.9c0-0.2,0.1-0.3,0.1-0.5c0-2.6-4.4-3.5-8-3.5c-3.6,0-8,1.5-8,3.5c0,0.2,0,0.4,0.1,0.5H264.7z"/>
<path class="st6" d="M260.9,45.5c0-2.2-2.3-4-5.2-4s-5.2,1.8-5.2,4c0,2.2,2.3,4,5.2,4C258.7,49.6,260.9,47.8,260.9,45.5z"/>
<path class="st6" d="M168.5,17.4v49.5H244c0-0.2-0.1-0.4-0.1-0.7c0-3.1,2.8-5.6,6.9-6.8c-0.3,0-0.4,0-0.4,0s-7.1-2.5,0.3-6.2h0.1
	c-3.3-1.5-5.5-4.5-5.5-7.9c0-4.8,4.5-8.8,10.1-9l0,0H269v5h-3.8c0.7,1.3,1.1,2.6,1.1,4c0,5-4.7,9-10.5,9c-0.2,0-0.3,0-0.5,0
	c-0.5,0.2-5.3,1.8-0.6,3.4c2.5,0.5,4.1,0.8,5.1,1.1c5.7,0.8,9.9,3.8,9.9,7.5c0,0.2,0,0.5-0.1,0.7h10V17.4H168.5z M204.4,62.8
	l-17.7-20.3v20.3h-6.8V22.5h6.8v16.6l16.1-16.6h7.8L193,41.1l18.5,21.7H204.4z M218.1,62.8h-5.7V35.3h5.7V62.8z M215.7,32.4
	c-1.8,0-3.4-1.4-3.4-3.4c0-1.8,1.5-3.4,3.4-3.4c1.8,0,3.4,1.4,3.4,3.4C219.1,30.9,217.5,32.4,215.7,32.4z M242.5,44.5L242.5,44.5
	L242.5,44.5v18.4h-5.6v-20l0,0c0,0-0.9-2.4-4-2.5c-2.1-0.3-5.7,0.7-6.8,3.5v19.1h-5.5V35.3h5.5v3.8c1-1.3,3.8-3.1,7.8-3
	C243.1,37.4,242.5,44.5,242.5,44.5z"/>
<path class="st6" d="M256.8,69.9c-3.2,0-7.1-1.3-7.9-2.9H244c0.6,4,6.2,7,12.9,7c6.7,0,12.3-3.1,12.9-7h-5.2
	C264.1,69.1,260,69.9,256.8,69.9z"/>
<path class="st5" d="M94.8,61.3c-2.2,1.3-3.5,1.4-4.5,1.1l-0.1-0.1c-1.1-0.7,0.1-16.9,0.1-16.9s0.1-2.9-0.6-6.1
	c-0.4-1-1-2.2-1.8-3.2c-2.2-2.1-4.7-3.2-9.5-3.2c-4.6,0-8.1,1.1-10.5,3.2c-1.5,1.3-2.1,2-2.1,2l0.3,5.6c0,0,2.9-2.5,5.6-3.8
	c1.8-1,3.8-1.4,6.4-1.4c1.2,0,2.3,0.2,3.4,0.6c1.6,0.7,2.6,1.8,2.8,3.3c0.1,0.9,0.1,1.9,0.1,3.1c-1.7,0.7-4.7,1.3-8.9,1.9
	c-8.1,1.3-12.2,4.7-12.2,10.3c0,2.9,1,5.2,2.9,6.9c1.9,1.7,4.6,2.7,8,2.7c4,0,7.6-1.5,10.8-4.6c0,0,0,0,0,0.1c0.2,2,1.8,4.5,4.5,4.6
	C93.9,66.9,95.2,61.6,94.8,61.3z M83.2,57.9c-1.5,2.6-3.9,3.9-7.2,3.9c-2,0-3.6-0.6-4.6-1.8c-0.8-0.9-1.2-1.9-1.2-3.1
	c0-1.6,0.8-2.9,2.2-3.8c1-0.5,2.3-0.9,4.2-1.3c3.5-0.6,6.1-1.3,7.6-1.8C84.3,54.2,83.9,56.7,83.2,57.9z"/>
</svg>
